<?xml version="1.0" encoding="utf-8"?>
<!-- Generator: Adobe Illustrator 19.0.0, SVG Export Plug-In . SVG Version: 6.00 Build 0)  -->
<svg version="1.1" id="Layer_1" xmlns="http://www.w3.org/2000/svg" xmlns:xlink="http://www.w3.org/1999/xlink" x="0px" y="0px"
	 viewBox="0 0 1269.1 640.1" style="enable-background:new 0 0 1269.1 640.1;" xml:space="preserve">
<style type="text/css">
	.st0{fill:#FFA400;}
</style>
<g>
	<path class="st0" d="M788.5,322.2c-1.7,4.2-3.3,8.4-5,12.6c-2.6,6.8-5.2,13.5-7.8,20.3c-1.5,3.8-2,4.2-6.1,4.2
		c-2.8,0-5.7-0.1-8.5,0c-2.6,0.1-4-1.1-4.8-3.4c-4.3-11.3-8.7-22.5-13.1-33.8c-0.1-0.3-0.2-0.5-0.8-0.7c0,0.9,0,1.7,0,2.6
		c0,14.4,0,28.8,0,43.2c0,3.8-1.1,4.9-4.9,4.9c-4.3,0-8.7,0-13,0c-3.8,0-5-1.2-5-5c0-26.3,0-52.6,0-79c0-3.7,1.3-4.9,5-4.9
		c6,0,12,0,18,0c3.4,0,4.4,0.7,5.6,3.8c5.4,13.8,10.8,27.6,16.3,41.4c0.4,1,0.8,2,1.4,3.5c2.2-5.6,4.2-10.5,6.1-15.5
		c3.9-9.9,7.8-19.8,11.6-29.8c1-2.5,2.8-3.4,5.3-3.4c6.2,0,12.5,0,18.7,0c3.1,0,4.3,1.4,4.3,4.5c0,9,0,18,0,27c0,17.3,0,34.7,0,52
		c0,4.4-1,5.4-5.5,5.4c-4,0-8,0-12,0c-4.3,0-5.4-1.1-5.4-5.5c0-13.9,0-27.8,0-41.7c0-0.9,0-1.7,0-2.6
		C788.9,322.2,788.7,322.2,788.5,322.2z"/>
	<path class="st0" d="M203.9,343.7c2.6,0,5.2,0,7.7,0c1.9,0,3.2,0.8,3.7,2.6c0.9,3.3,3.2,4.9,6.4,5.5c3.4,0.6,6.8,0.8,10.1-0.5
		c4.1-1.6,4.9-6.1,1.5-8.9c-1.6-1.3-3.6-2.1-5.5-2.8c-5.1-1.8-10.3-3.2-15.3-5.4c-6.6-2.9-12.5-6.6-16-13.2
		c-6.3-12-2.8-29.6,11.8-36c11.9-5.2,23.9-4.9,35.2,1.7c8,4.7,11.3,12.4,12.2,21.2c0.2,2-1.4,3.2-3.4,3.3c-5.4,0.1-10.8,0.1-16.2,0
		c-1.6,0-2.5-1.1-3.1-2.5c-2.6-5.3-7.7-7.1-13.1-4.9c-3.7,1.5-4.6,5.6-1.9,8.6c2.2,2.4,5.2,3.3,8,4.3c6.6,2.3,13.3,4.3,19.4,7.9
		c8.4,5,13.1,12.4,13,22.1c-0.1,10.7-4.6,19.2-14.8,23.5c-13.8,5.7-27.5,5.4-40.3-3c-6.9-4.6-9.8-11.8-10.7-19.8
		c-0.3-2.4,1.1-3.7,3.6-3.8C198.8,343.7,201.3,343.7,203.9,343.7z"/>
	<path class="st0" d="M992.3,348.2c-6.2,0-12.5,0-18.7,0c-1.8,0-2.2,0.4-1.4,2.1c3,6.3,11.7,9.5,18,5.7c6.3-3.9,12.9-2.4,19.4-2.6
		c2.7-0.1,3.4,2.4,1.8,5.4c-4,7.3-10.1,12-18.1,13.8c-11.9,2.6-23,1.2-32.7-6.9c-5.9-4.9-9.1-11.4-10.4-18.8
		c-1.8-10.4,0.3-19.9,6.9-28.2c5.2-6.5,12.1-10,20.2-11.4c9.5-1.5,18.4,0.2,26.1,6.3c6.6,5.2,10.1,12.2,11.6,20.4c0.5,3,0.6,6,0.5,9
		c-0.2,4-1.4,5.2-5.4,5.2C1004.1,348.2,998.2,348.2,992.3,348.2z M983.1,333.3c3.2,0,6.3,0,9.5,0c2.5,0,2.6-0.2,1.4-2.5
		c-2.3-4.4-6-6.2-10.9-6c-4.9,0.1-8.7,2-11.1,6.3c-0.9,1.5-0.6,2.3,1.3,2.3C976.6,333.2,979.9,333.3,983.1,333.3z"/>
	<path class="st0" d="M816.4,340.3c-0.4-18.2,14-33.5,33.6-33.4c19.3,0,33.8,14.3,33.9,33.5c0.1,19.5-16.1,33.6-34.1,33.4
		C831.1,373.6,815.8,358.3,816.4,340.3z M837.5,340.3c0,7.8,5.1,13.3,12.5,13.4c7.1,0.1,13.1-5.7,12.9-13.1
		c-0.1-7.5-4.4-13.2-12.7-13.3C842.7,327.1,837.5,332.6,837.5,340.3z"/>
	<path class="st0" d="M1044.8,343.4c1.5-4.9,2.8-9.3,4.2-13.6c1.7-5.7,3.4-11.5,5.2-17.2c1-3.2,2-3.9,5.2-3.9c4.3,0,8.7,0,13,0
		c4,0,4.9,1.3,3.6,5.1c-5.4,16.1-10.8,32.2-16.2,48.3c-3.5,10.3-6.9,20.7-10.4,31c-1.2,3.5-2,4-5.6,4.1c-4.4,0-8.8,0-13.2,0
		c-3.8,0-4.6-1.2-3.4-4.8c2.1-6.2,4.1-12.5,6.3-18.7c0.6-1.6,0.5-3-0.1-4.6c-6.9-17.9-13.8-35.7-20.7-53.6c-2.3-6-1.7-6.8,4.6-6.8
		c3.8,0,7.7,0.1,11.5,0c2.7-0.1,4.1,1.2,5,3.6c3.1,9,6.3,17.9,9.4,26.9C1043.6,340.4,1044.1,341.6,1044.8,343.4z"/>
	<path class="st0" d="M479.5,342.8c2.2-7.2,4.4-14.3,6.5-21.5c1-3.2,2-6.4,2.9-9.6c0.6-2.2,2-3.1,4.2-3.1c4.8,0,9.7,0,14.5,0
		c3,0,4,1.3,3,4.2c-7.2,21.7-14.5,43.4-21.8,65.1c-1.7,5.1-3.4,10.3-5.2,15.4c-1.1,3.3-1.8,3.8-5.2,3.8c-4.2,0-8.5,0-12.7,0
		c-4.6,0-5.4-1-4-5.4c2.1-6.2,4.1-12.3,6.3-18.4c0.5-1.4,0.4-2.7-0.1-4.1c-7.2-18.6-14.3-37.1-21.4-55.7c-1.3-3.4-0.3-4.9,3.3-4.9
		c4.2,0,8.5,0,12.7,0c3.7,0,4.6,0.6,5.9,4.1c3.2,9.1,6.4,18.2,9.6,27.3c0.3,0.9,0.6,1.7,0.9,2.6
		C479.1,342.7,479.3,342.8,479.5,342.8z"/>
	<path class="st0" d="M346.8,313.2c3.4-3.9,7.6-5.5,12.4-6.2c7.7-1.1,15.6,2.6,19.4,9.5c2.2,3.9,3.4,8.2,3.4,12.7
		c0.1,12.9,0,25.8,0,38.7c0,3.1-1,4.1-4,4.2c-4.3,0.1-8.7,0.1-13,0c-3-0.1-4-1.1-4-4.2c0-11,0-22,0-33c0-4.5-1.7-7-5.1-7.8
		c-5.3-1.3-9.3,1.8-9.4,7.3c-0.1,7.9,0,15.8,0,23.7c0,3.2,0,6.5,0,9.7c-0.1,2.8-1.4,4.2-4.2,4.2c-4.3,0.1-8.7,0.1-13,0
		c-2.8,0-4.2-1.4-4.2-4.2c0-18.4,0-36.8,0-55.2c0-3,1.1-4,4.2-4c4.1,0,8.2,0,12.2,0C345.3,308.7,345.6,309,346.8,313.2z"/>
	<path class="st0" d="M909.9,313.6c3.7-4.1,7.7-5.8,12.5-6.5c8.9-1.2,17,3.2,20.6,11.5c1.6,3.7,2.5,7.6,2.5,11.6c0,12.5,0,25,0,37.5
		c0,3.1-1.3,4.4-4.4,4.4c-4.1,0-8.2,0.1-12.2,0c-3.4,0-4.4-1-4.4-4.6c0-10.9,0-21.8,0-32.7c0-4.2-1.7-6.8-4.8-7.6
		c-5.5-1.5-9.7,1.6-9.8,7.3c-0.1,10.1,0,20.2,0,30.2c0,6.9-0.5,7.4-7.3,7.4c-3.2,0-6.5,0-9.7,0c-2.9-0.1-4.3-1.4-4.3-4.3
		c0-18.3,0-36.7,0-55c0-3,1.1-4.1,4.1-4.1c3.7,0,7.3,0.1,11,0C906.8,308.6,909.8,308.5,909.9,313.6z"/>
	<path class="st0" d="M409.2,313.4c8-8,19.4-8.8,27.8-2c4.6,3.7,6.8,8.9,7.3,14.6c1.3,14.1,0.3,28.3,0.5,42.4c0,2.4-1.5,3.7-4.1,3.8
		c-4.2,0.1-8.5,0-12.7,0c-3.2,0-4.5-1.3-4.5-4.6c0-11,0-22,0-33c0-1.2,0.1-2.3-0.3-3.5c-1-2.8-3.5-4.4-6.6-4.4c-3.4,0.1-6.3,2.1-7,5
		c-0.4,1.5-0.6,3.1-0.6,4.7c0,10.3,0,20.7,0,31c0,3.7-0.9,4.7-4.5,4.7c-4,0-8,0-12,0c-3.5,0-4.5-1-4.5-4.5c0-18.2,0-36.5,0-54.7
		c0-3.4,0.8-4.2,4.3-4.2c3.9,0,7.8,0,11.7,0C408,308.7,408.6,309.3,409.2,313.4z"/>
	<path class="st0" d="M298.1,367.4c-2.9,2.7-6,4.8-9.8,5.7c-11.5,2.8-21.7-3.3-24.7-15.1c-0.7-2.7-1.1-5.5-1.1-8.4
		c0-12.1,0-24.2,0-36.2c0-3.8,0.9-4.7,4.7-4.7c4.1,0,8.2,0,12.2,0c3.1,0,4,0.9,4,4c0,10.7,0,21.3,0,32c0,1.2,0,2.3,0.3,3.5
		c1,4.1,2.8,5.6,7,5.6c4,0,6.3-1.9,7.1-5.6c0.3-1.7,0.6-3.4,0.5-5.2c0-9.9,0-19.8,0-29.7c0-3.7,0.8-4.5,4.3-4.5c4.2,0,8.3,0,12.5,0
		c3.1,0,4.2,1.1,4.2,4.2c0,18.2,0,36.3,0,54.5c0,3.4-1.3,4.7-4.7,4.7c-3.7,0-7.3,0-11,0C299.5,372.1,299,371.7,298.1,367.4z"/>
	<path class="st0" d="M678,302.3c3.8,2.2,7.7,4.4,11.6,6.6c5.4,3.1,10.8,6.2,16.2,9.4c2.5,1.5,2.6,1.7,0.2,3.1
		c-8.8,5.1-17.6,10.2-26.4,15.2c-0.5,0.3-1.2,0.9-1.8,0.4c-0.5-0.5,0-1.1,0.1-1.6c2.4-10.6,2.4-21.1-0.3-31.6
		C677.5,303.3,677.5,302.8,678,302.3z"/>
	<path class="st0" d="M646.6,264.1c3.3-0.9,5.9-1.6,8.5-2.3c8.1-2.2,16.2-4.4,24.3-6.5c0.9-0.2,2.3-1,1.7,1.2
		c-2.8,10.3-5.6,20.7-8.4,31.1c-0.1,0.4-0.1,1-0.9,1.4C665.8,278.6,657.7,270.3,646.6,264.1z"/>
	<path class="st0" d="M633.8,257.9c-0.3,1.2-1.1,0.7-1.7,0.5c-6.6-1.8-13.3-1.9-20-1.8c-3.9,0.1-7.6,1-11.3,1.7
		c-0.5,0.1-1.1,0.6-1.5-0.1c-0.3-0.5,0.2-0.9,0.4-1.4c5.2-9.1,10.5-18.1,15.7-27.2c1.3-2.2,1.8-0.7,2.4,0.3c4.6,8,9.2,16,13.8,24
		C632.3,255.2,633,256.5,633.8,257.9z"/>
	<path class="st0" d="M671.9,350.4c1.4,2.4,1.6,4.5,2.1,6.5c2.3,8.5,4.6,17,6.9,25.5c0.5,1.8,0.5,2.6-1.8,2
		c-9.8-2.7-19.7-5.3-29.6-8c-0.7-0.2-1.4-0.5-2.6-0.9C657.6,369.4,665.8,361.2,671.9,350.4z"/>
	<path class="st0" d="M634.3,381c-6,10.4-11.7,20.4-17.6,30.6c-2.3-2.7-3.6-5.7-5.3-8.5c-3.9-6.7-7.7-13.4-11.6-20.1
		c-0.3-0.5-0.8-1.1-0.4-1.6c0.4-0.5,1.1-0.3,1.6-0.1c10.7,2.7,21.4,2.5,32-0.3C633.2,381,633.5,381,634.3,381z"/>
	<path class="st0" d="M585.2,375.8c-3.3,0.9-6.7,1.8-10,2.7c-7.2,1.9-14.5,3.9-21.7,5.8c-1.3,0.4-2.1,0.4-1.6-1.4
		c2.8-10.5,5.6-21,8.5-31.6c0-0.1,0.2-0.2,0.6-0.6c6,10.2,14.1,18.4,24.4,24.3C585.3,375.4,585.2,375.6,585.2,375.8z"/>
	<path class="st0" d="M585.4,264.5c-10.4,5.9-18.5,14-24.6,24.9c-0.6-1.9-1.1-3.4-1.5-4.8c-2.5-9.2-4.9-18.5-7.4-27.7
		c-0.2-0.9-0.9-2.2,1.1-1.7c10.8,2.9,21.5,5.7,32.2,8.6C585.2,264,585.3,264.2,585.4,264.5z"/>
	<path class="st0" d="M555.3,302.5c-1.5,6.2-2.5,12.2-2.4,18.4c0.1,4.8,0.8,9.4,1.8,14c0.1,0.6,0.5,1.4-0.1,1.9
		c-0.6,0.5-1.2-0.2-1.8-0.5c-8.9-5.1-17.7-10.2-26.6-15.3c-1.2-0.7-1.7-1.4-0.1-2.3c9.4-5.4,18.9-10.8,28.3-16.3
		C554.6,302.4,554.8,302.5,555.3,302.5z"/>
	<path class="st0" d="M629,324.3c-11-0.3-19.1-5.5-24.4-15c-0.7-1.3-1.3-3,0.4-3.9c1.9-1,2.6,0.5,3.4,1.8c5.1,9.2,13,13.6,23.5,12.5
		c6.8-0.7,12.2-4.2,16-9.9c0.5-0.7,0.9-1.4,1.4-2.1c0.7-1,1.6-1.9,2.9-0.9c1.2,0.9,1.5,2,0.7,3.3c-2.4,4.1-5.5,7.6-9.5,10
		C639.1,322.8,634.3,324.4,629,324.3z"/>
	<path class="st0" d="M616.4,288.4c0,2.3-2.6,4.8-4.9,4.7c-2.3,0-4.4-2.1-4.5-4.5c-0.1-2.6,2-4.8,4.6-4.9
		C613.8,283.7,616.4,286.2,616.4,288.4z"/>
	<path class="st0" d="M646.7,294.2c-2.5,0-4.7-2.1-4.7-4.5c0-2.6,2.2-4.8,4.8-4.8c2.3,0,4.6,2.5,4.6,4.8
		C651.4,292.1,649.2,294.2,646.7,294.2z"/>
</g>
</svg>
